<svg width="67" height="67" viewBox="0 0 67 67" fill="none" xmlns="http://www.w3.org/2000/svg">
<mask id="mask0_51_549" style="mask-type:luminance" maskUnits="userSpaceOnUse" x="8" y="0" width="59" height="59">
<path d="M8 58.3401H66.34V-1.52588e-05H8V58.3401Z" fill="#F0FFF7"/>
</mask>
<g mask="url(#mask0_51_549)">
<path d="M66.0726 29.1701C66.0726 45.1323 53.1323 58.0725 37.1702 58.0725C21.2081 58.0725 8.26782 45.1323 8.26782 29.1701C8.26782 13.208 21.2081 0.267743 37.1702 0.267743C53.1323 0.267743 66.0726 13.208 66.0726 29.1701Z" stroke="#F0FFF7" stroke-miterlimit="10"/>
</g>
<g opacity="0.300003">
<mask id="mask1_51_549" style="mask-type:luminance" maskUnits="userSpaceOnUse" x="15" y="7" width="44" height="44">
<path d="M15.4933 50.8469H58.8469V7.49324H15.4933V50.8469Z" fill="#F0FFF7"/>
</mask>
<g mask="url(#mask1_51_549)">
<path d="M58.5795 29.1702C58.5795 40.9939 48.994 50.5793 37.1703 50.5793C25.346 50.5793 15.7611 40.9939 15.7611 29.1702C15.7611 17.3464 25.346 7.761 37.1703 7.761C48.994 7.761 58.5795 17.3464 58.5795 29.1702Z" stroke="#F0FFF7" stroke-miterlimit="10"/>
</g>
</g>
<path d="M36.7417 24.9977C34.6576 24.9977 32.9162 26.4452 32.456 28.3885H25.5999C26.1136 22.6855 30.9049 18.2154 36.7417 18.2154L38.4371 16.8592H1.35956C0.150545 16.8592 -0.454547 18.3201 0.400144 19.1748L10.6553 29.43C11.2912 30.0659 12.1535 30.4231 13.053 30.4231H16.7347H25.5999H32.456C32.9162 32.3664 34.6576 33.814 36.7417 33.814C39.1766 33.814 41.1495 31.8404 41.1495 29.4061C41.1495 26.9712 39.1766 24.9977 36.7417 24.9977Z" fill="#F0FFF7"/>
<path d="M32.9247 31.6103C33.9661 33.4151 36.0909 34.1994 38.0034 33.6263L41.432 39.5643C36.2358 41.9701 29.9696 40.0565 27.0512 35.0011L25.0288 34.211L43.5679 66.3216C44.1718 67.3677 45.7392 67.1617 46.0522 65.9946L49.8061 51.9856C50.0389 51.1169 49.9167 50.1912 49.4675 49.4122L47.6266 46.2238L43.1938 38.5467L39.7657 32.6087C41.2191 31.2391 41.6013 29.0066 40.5599 27.2018C39.3421 25.0939 36.646 24.3713 34.5375 25.5884C32.4295 26.8056 31.7069 29.5018 32.9247 31.6103Z" fill="#F0FFF7"/>
<path d="M40.5598 31.6097C41.6013 29.8049 41.219 27.5731 39.7656 26.2029L43.1937 20.2648C47.8756 23.562 49.3511 29.9457 46.4333 35.0006L46.7597 37.1475L65.2993 5.0369C65.9032 3.99079 64.9403 2.73581 63.7726 3.04882L49.7642 6.80214C48.8955 7.03487 48.1549 7.6033 47.7051 8.38235L45.8643 11.5707L41.432 19.2478L38.0033 25.1853C36.0909 24.6122 33.9661 25.3971 32.9246 27.2013C31.7069 29.3098 32.4295 32.0059 34.5374 33.2231C36.6459 34.4408 39.3421 33.7182 40.5598 31.6097Z" fill="#F0FFF7"/>
</svg>
